<?xml version="1.0" encoding="UTF-8"?>
<svg version="1.1" xmlns="http://www.w3.org/2000/svg" width="512" height="512">
<path d="M0 0 C168.96 0 337.92 0 512 0 C512 168.96 512 337.92 512 512 C343.04 512 174.08 512 0 512 C0 343.04 0 174.08 0 0 Z " fill="#0A201B" transform="translate(0,0)"/>
<path d="M0 0 C0.94121704 -0.00671722 1.88243408 -0.01343445 2.85217285 -0.02035522 C5.94048458 -0.03923311 9.02857764 -0.04325479 12.11694336 -0.04541016 C14.28535549 -0.05184703 16.45376676 -0.05857604 18.62217712 -0.06558228 C23.16203827 -0.07753095 27.70182347 -0.08126577 32.24169922 -0.08007812 C38.01883785 -0.07987551 43.7954814 -0.10712938 49.57250309 -0.14162254 C54.05191723 -0.16402087 58.53121487 -0.16791166 63.01067924 -0.16685867 C65.13823584 -0.16919707 67.26579653 -0.17791949 69.3932972 -0.19352341 C85.74310564 -0.30217901 101.46487601 0.1708143 115.14428711 10.29052734 C115.77592773 10.74169922 116.40756836 11.19287109 117.05834961 11.65771484 C127.07663775 19.46933159 133.69642354 31.91861402 135.43771362 44.39251709 C136.2289718 51.66053519 136.28900659 58.87548005 136.27709961 66.18115234 C136.27805634 67.48453552 136.27901306 68.7879187 136.27999878 70.13079834 C136.28146223 72.87057703 136.27936375 75.61032283 136.2746582 78.35009766 C136.26893901 81.84901649 136.2722623 85.34785896 136.27823067 88.84677505 C136.28272304 92.2082402 136.2795743 95.56968504 136.27709961 98.93115234 C136.27912384 100.18124084 136.28114807 101.43132935 136.28323364 102.71929932 C136.2785054 104.47207184 136.2785054 104.47207184 136.27368164 106.26025391 C136.27288605 107.28266174 136.27209045 108.30506958 136.27127075 109.35845947 C136.13930336 112.40560284 135.70599833 115.29522206 135.14428711 118.29052734 C136.35084961 118.24412109 137.55741211 118.19771484 138.80053711 118.14990234 C140.41509547 118.11235447 142.02968089 118.07595757 143.64428711 118.04052734 C144.43577148 118.00701172 145.22725586 117.97349609 146.04272461 117.93896484 C152.50010565 117.83310614 157.83369124 119.23105461 162.6730957 123.70336914 C168.18120463 129.94169707 168.48467455 135.58702908 168.45678711 143.54052734 C168.48095703 144.89597656 168.48095703 144.89597656 168.50561523 146.27880859 C168.51021343 152.67029744 168.10957335 159.78629374 163.79833984 164.88110352 C157.15921963 170.7294232 150.66026286 170.62827095 142.26928711 170.60302734 C140.67407227 170.62719727 140.67407227 170.62719727 139.04663086 170.65185547 C131.71517447 170.65640917 126.4667096 170.10180791 120.70678711 165.22802734 C119.14428711 163.29052734 119.14428711 163.29052734 119.14428711 161.29052734 C118.15428711 161.29052734 117.16428711 161.29052734 116.14428711 161.29052734 C115.87567871 161.88438232 115.60707031 162.4782373 115.33032227 163.09008789 C114.13896479 165.3004018 112.94216813 166.73699918 111.16772461 168.49755859 C110.58369873 169.08037598 109.99967285 169.66319336 109.39794922 170.26367188 C108.46801147 171.17415283 108.46801147 171.17415283 107.51928711 172.10302734 C106.88192627 172.73321777 106.24456543 173.3634082 105.58789062 174.01269531 C101.91387942 177.62351484 98.18750655 181.1299494 94.25756836 184.46240234 C91.36604479 186.9637573 88.57184947 189.56533204 85.76928711 192.16552734 C81.05967837 196.5296566 76.32337854 200.85994713 71.53881836 205.14208984 C69.90442246 206.60851357 68.277095 208.08284415 66.65600586 209.56396484 C47.56432062 226.96323009 47.56432062 226.96323009 36.94506836 226.72412109 C32.20433391 225.99019986 29.55979769 223.50044408 26.14428711 220.29052734 C25.38760742 219.62537109 24.63092773 218.96021484 23.85131836 218.27490234 C21.25258759 215.97777308 18.69659539 213.63909549 16.14428711 211.29052734 C15.20456055 210.43201172 14.26483398 209.57349609 13.29663086 208.68896484 C8.0849622 203.92668247 2.89446543 199.14141353 -2.29321289 194.35302734 C-2.8265625 193.86092773 -3.35991211 193.36882812 -3.90942383 192.86181641 C-6.75326984 190.23659639 -9.59247261 187.60654372 -12.42602539 184.97021484 C-13.0106958 184.42743896 -13.59536621 183.88466309 -14.19775391 183.32543945 C-15.314286 182.28876151 -16.42944187 181.25059862 -17.54296875 180.21069336 C-19.70275098 178.20751166 -21.83790981 176.30340305 -24.22680664 174.57568359 C-24.7643457 174.15158203 -25.30188477 173.72748047 -25.85571289 173.29052734 C-25.85571289 172.63052734 -25.85571289 171.97052734 -25.85571289 171.29052734 C-26.84571289 170.96052734 -27.83571289 170.63052734 -28.85571289 170.29052734 C-28.85571289 169.63052734 -28.85571289 168.97052734 -28.85571289 168.29052734 C-29.51571289 168.29052734 -30.17571289 168.29052734 -30.85571289 168.29052734 C-32.23803732 166.66426331 -33.57508804 164.99802714 -34.85571289 163.29052734 C-38.29735758 164.82014721 -40.94723047 166.917818 -43.85571289 169.29052734 C-48.27101554 171.49817867 -54.25739404 170.52043069 -59.10571289 170.54052734 C-60.94842773 170.57146484 -60.94842773 170.57146484 -62.82836914 170.60302734 C-64.61307617 170.61076172 -64.61307617 170.61076172 -66.43383789 170.61865234 C-68.06434082 170.6326709 -68.06434082 170.6326709 -69.7277832 170.64697266 C-74.87023553 170.06096107 -78.02296998 168.14219623 -81.60571289 164.47802734 C-86.21879987 157.94282079 -86.24874463 151.66288642 -86.29321289 143.91552734 C-86.32608398 142.91263672 -86.35895508 141.90974609 -86.39282227 140.87646484 C-86.44205933 134.03698949 -85.29372932 129.56993991 -80.85571289 124.29052734 C-74.99325559 118.72119291 -69.79778391 117.9965258 -62.04321289 118.16552734 C-61.25495117 118.17455078 -60.46668945 118.18357422 -59.65454102 118.19287109 C-57.72146623 118.2163023 -55.78854909 118.25216896 -53.85571289 118.29052734 C-54.18571289 117.30052734 -54.51571289 116.31052734 -54.85571289 115.29052734 C-54.95442217 113.3611287 -54.99395997 111.4284913 -55.00097656 109.49658203 C-55.00735641 108.30393738 -55.01373627 107.11129272 -55.02030945 105.88250732 C-55.02142227 104.58887268 -55.0225351 103.29523804 -55.02368164 101.96240234 C-55.02689907 100.61256882 -55.0302635 99.26273564 -55.0337677 97.91290283 C-55.03976165 95.0749023 -55.0416078 92.2369322 -55.04101562 89.39892578 C-55.04091505 85.80535064 -55.05445555 82.21197781 -55.07178783 78.61845016 C-55.08305739 75.82300978 -55.08493017 73.02761559 -55.0844059 70.23215485 C-55.08612509 68.27672348 -55.09688678 66.32130655 -55.10795593 64.36590576 C-55.06213757 46.04125924 -52.64215813 29.38515675 -39.85571289 15.29052734 C-27.86915812 4.64306998 -15.88367966 -0.01658148 0 0 Z " fill="#FDFDFD" transform="translate(214.855712890625,53.70947265625)"/>
<path d="M0 0 C168.96 0 337.92 0 512 0 C512 168.96 512 337.92 512 512 C343.04 512 174.08 512 0 512 C0 343.04 0 174.08 0 0 Z M19 19 C19 175.42 19 331.84 19 493 C175.42 493 331.84 493 493 493 C493 336.58 493 180.16 493 19 C336.58 19 180.16 19 19 19 Z " fill="#FAFBFA" transform="translate(0,0)"/>
<path d="M0 0 C5.03892738 4.25668768 9.89626219 8.65513696 14.6875 13.1875 C16.09987511 14.51603474 17.51263879 15.8441565 18.92578125 17.171875 C19.61623535 17.82091797 20.30668945 18.46996094 21.01806641 19.13867188 C35.84134307 34.9866984 35.84134307 34.9866984 55.12890625 41.33203125 C63.66602524 40.34474538 70.02681385 32.58673529 76 27 C78.20594492 24.95574738 80.41570073 22.91562618 82.625 20.875 C83.4600708 20.1020459 83.4600708 20.1020459 84.31201172 19.31347656 C87.84343745 16.04934486 91.38299719 12.80121733 95.07275391 9.71533203 C97.02026495 8.05428906 97.02026495 8.05428906 98.6003418 6.16625977 C101.5951162 2.95263483 103.83691426 1.19842578 108.2355957 0.44799805 C112.02187361 0.35499995 115.72097844 0.50263202 119.5 0.75 C120.78003906 0.78738281 122.06007813 0.82476562 123.37890625 0.86328125 C130.66537646 1.21743234 136.48103928 1.94133246 142 7 C147.08473011 13.51888476 147.23441118 18.6807644 147.3125 26.625 C147.34150391 27.58535156 147.37050781 28.54570312 147.40039062 29.53515625 C147.46289926 36.62267328 146.45306697 43.11783604 141.58740234 48.58813477 C136.56874397 53.02907694 132.02471518 54.24827834 125.45426941 54.26742554 C124.4885261 54.27422221 124.4885261 54.27422221 123.50327283 54.28115618 C121.35391479 54.29377878 119.20481084 54.29218124 117.05541992 54.29052734 C115.5110288 54.29651398 113.96664067 54.30331984 112.42225647 54.31088257 C108.23205036 54.32853696 104.04192595 54.33323774 99.85168624 54.33451414 C97.23190384 54.33593672 94.61214214 54.34020836 91.99236488 54.34550858 C82.84735421 54.36400764 73.70240181 54.37217942 64.55737305 54.37060547 C56.04187584 54.36940439 47.52663223 54.39050031 39.01119918 54.4220928 C31.69297509 54.44827303 24.37483374 54.45897202 17.0565632 54.45769465 C12.6889414 54.45718549 8.32154498 54.46284302 3.95396996 54.48405075 C-0.1558871 54.50346245 -4.26530451 54.50353781 -8.37517738 54.48901749 C-9.87956893 54.48693184 -11.38398821 54.49161574 -12.88833237 54.5037384 C-28.94024215 54.62466535 -28.94024215 54.62466535 -35.50602436 48.62347984 C-41.2275532 42.3606981 -41.34059981 35.58218514 -41.3125 27.5625 C-41.32861328 26.64662109 -41.34472656 25.73074219 -41.36132812 24.78710938 C-41.36638795 17.73877899 -40.06095624 13.23864553 -36.25 7.25 C-31.48824789 2.48824789 -26.94322095 1.80849623 -20.41015625 1.70703125 C-17.96076527 1.72683765 -15.51145898 1.76241641 -13.0625 1.8125 C-11.80630859 1.82603516 -10.55011719 1.83957031 -9.25585938 1.85351562 C-6.17012721 1.88871409 -3.08528976 1.93795695 0 2 C0 1.34 0 0.68 0 0 Z " fill="#617671" transform="translate(202,238)"/>
<path d="M0 0 C1.49950195 -0.04350586 1.49950195 -0.04350586 3.02929688 -0.08789062 C11.04683057 -0.15561508 18.00644126 1.14371387 24.375 6.27734375 C24.890625 6.92832031 25.40625 7.57929687 25.9375 8.25 C26.47375 8.89839844 27.01 9.54679687 27.5625 10.21484375 C30.75933518 15.09183378 31.27683909 19.44393464 31.25 25.1875 C31.26611328 25.86941406 31.28222656 26.55132812 31.29882812 27.25390625 C31.29947266 27.93066406 31.30011719 28.60742188 31.30078125 29.3046875 C31.30376221 29.90651855 31.30674316 30.50834961 31.30981445 31.12841797 C30.9375 33.3125 30.9375 33.3125 27.9375 40.3125 C35.1975 40.3125 42.4575 40.3125 49.9375 40.3125 C49.9375 32.0625 49.9375 23.8125 49.9375 15.3125 C45.3175 15.3125 40.6975 15.3125 35.9375 15.3125 C35.6075 10.6925 35.2775 6.0725 34.9375 1.3125 C50.7775 1.3125 66.6175 1.3125 82.9375 1.3125 C82.9375 5.9325 82.9375 10.5525 82.9375 15.3125 C77.6575 15.3125 72.3775 15.3125 66.9375 15.3125 C66.9375 42.7025 66.9375 70.0925 66.9375 98.3125 C61.3275 98.3125 55.7175 98.3125 49.9375 98.3125 C49.9375 84.4525 49.9375 70.5925 49.9375 56.3125 C40.0375 56.8075 40.0375 56.8075 29.9375 57.3125 C30.5975 58.9625 31.2575 60.6125 31.9375 62.3125 C32.89126343 71.65938161 32.99436018 80.58582874 26.9375 88.3125 C17.9586824 96.92316562 6.10069093 96.68896875 -5.6015625 96.53125 C-14.29101927 96.23879878 -21.51102593 93.44443864 -29.0625 89.3125 C-29.0625 83.7025 -29.0625 78.0925 -29.0625 72.3125 C-24.68916803 74.06183279 -20.63350032 76.02678797 -16.46484375 78.19140625 C-11.7454485 80.3937907 -7.34861025 80.52462029 -2.1875 80.5625 C-1.49269531 80.583125 -0.79789063 80.60375 -0.08203125 80.625 C4.68907972 80.66094057 7.91629236 79.88127145 11.9375 77.3125 C14.39141569 73.63162647 14.16552759 70.86894412 14.0625 66.625 C14.05347656 65.92310547 14.04445312 65.22121094 14.03515625 64.49804688 C14.01163704 62.76938475 13.97576713 61.04089855 13.9375 59.3125 C7.04243671 55.45126456 0.23108161 54.95466481 -7.5 54.6875 C-8.42232422 54.64882812 -9.34464844 54.61015625 -10.29492188 54.5703125 C-12.55048068 54.47681783 -14.80646176 54.39360639 -17.0625 54.3125 C-17.0625 49.3625 -17.0625 44.4125 -17.0625 39.3125 C-14.67644531 39.25642578 -14.67644531 39.25642578 -12.2421875 39.19921875 C-10.14060201 39.1335442 -8.03904055 39.06709738 -5.9375 39 C-4.36742187 38.96616211 -4.36742187 38.96616211 -2.765625 38.93164062 C2.79324433 38.73813568 7.19229787 38.54786509 11.9375 35.3125 C13.34182107 32.50385786 13.22102778 30.0686645 13.3125 26.9375 C13.36148438 25.79539063 13.41046875 24.65328125 13.4609375 23.4765625 C13.19707253 20.20793211 13.19707253 20.20793211 10.92578125 17.92578125 C7.14802576 15.88628711 3.93567717 15.74786711 -0.25 15.875 C-1.00522949 15.88748779 -1.76045898 15.89997559 -2.53857422 15.9128418 C-8.41589612 16.09741364 -13.60804007 17.05337667 -19.0625 19.3125 C-19.7740625 19.59867188 -20.485625 19.88484375 -21.21875 20.1796875 C-22.84721872 20.85821613 -24.45765167 21.57985185 -26.0625 22.3125 C-26.16727512 16.52658489 -26.05500545 11.01940634 -25.0625 5.3125 C-23.29184889 4.66616725 -21.52097247 4.0204517 -19.75 3.375 C-18.76386719 3.01535156 -17.77773437 2.65570313 -16.76171875 2.28515625 C-10.9809763 0.20208119 -6.11058014 0.05753842 0 0 Z " fill="#102621" transform="translate(228.0625,103.6875)"/>
<path d="M0 0 C1.05058594 -0.01998047 2.10117187 -0.03996094 3.18359375 -0.06054688 C10.61392906 -0.0558971 16.53046259 0.88875288 21.96484375 6.25390625 C22.50818359 7.11822266 22.50818359 7.11822266 23.0625 8 C23.44277344 8.57878906 23.82304687 9.15757813 24.21484375 9.75390625 C26.84621774 14.62138346 26.34680148 19.68363174 26.375 25.0625 C26.395625 26.02285156 26.41625 26.98320312 26.4375 27.97265625 C26.47310353 34.53260609 26.22388589 41.78166889 21.77880859 47.02563477 C15.03305137 52.97961116 8.28411767 52.80266807 -0.25 52.8125 C-1.36117188 52.83699219 -2.47234375 52.86148438 -3.6171875 52.88671875 C-10.28658078 52.91053801 -14.47754536 52.45421043 -19.875 48.4375 C-26.1333653 42.00998969 -26.21581462 35.00004857 -26.1875 26.5 C-26.20361328 25.53642578 -26.21972656 24.57285156 -26.23632812 23.58007812 C-26.24129006 16.32076394 -25.35361648 11.38504392 -20.5625 5.6875 C-13.96460218 0.16367857 -8.30376262 -0.05562813 0 0 Z " fill="#68BDA8" transform="translate(389.875,104.5625)"/>
<path d="M0 0 C1.05509766 -0.02449219 2.11019531 -0.04898438 3.19726562 -0.07421875 C10.67327468 -0.10216645 16.51557324 0.82001358 22.02734375 6.15625 C22.57068359 7.00703125 22.57068359 7.00703125 23.125 7.875 C23.50527344 8.4421875 23.88554687 9.009375 24.27734375 9.59375 C26.91604904 14.75791142 26.40776144 20.47467429 26.4375 26.125 C26.458125 27.08921875 26.47875 28.0534375 26.5 29.046875 C26.5345833 35.41020165 26.3285392 41.9148059 21.8059082 46.89697266 C14.93597353 52.8711101 9.22004673 52.76897416 0.4375 52.8125 C-0.7175 52.84537109 -1.8725 52.87824219 -3.0625 52.91210938 C-10.14746851 52.95659262 -15.50657152 52.38903859 -20.8125 47.375 C-22.49180627 45.09314272 -23.59183256 42.96281497 -24.8125 40.375 C-25.1425 39.715 -25.4725 39.055 -25.8125 38.375 C-26.10979504 34.50647396 -26.09065583 30.62860134 -26.125 26.75 C-26.15400391 25.68136719 -26.18300781 24.61273438 -26.21289062 23.51171875 C-26.26794352 16.62587198 -25.50974471 12.22558504 -21.8125 6.375 C-15.27705421 0.00712974 -8.66187701 0.01046753 0 0 Z " fill="#68BDA8" transform="translate(120.8125,104.625)"/>
<path d="M0 0 C2.83439137 -0.10901505 5.66450203 -0.18777904 8.5 -0.25 C9.29148437 -0.28351563 10.08296875 -0.31703125 10.8984375 -0.3515625 C17.35581854 -0.45742121 22.68940413 0.94052726 27.52880859 5.4128418 C33.03691752 11.65116973 33.34038744 17.29650173 33.3125 25.25 C33.32861328 26.15363281 33.34472656 27.05726563 33.36132812 27.98828125 C33.36592632 34.37977009 32.96528624 41.4957664 28.65405273 46.59057617 C22.01493252 52.43889586 15.51597575 52.33774361 7.125 52.3125 C5.52978516 52.33666992 5.52978516 52.33666992 3.90234375 52.36132812 C-3.42911264 52.36588182 -8.67757751 51.81128057 -14.4375 46.9375 C-16 45 -16 45 -16 43 C-16.66 42.67 -17.32 42.34 -18 42 C-17.56429688 41.44054687 -17.12859375 40.88109375 -16.6796875 40.3046875 C-7.83770238 28.40054303 -2.95193057 14.41956867 0 0 Z " fill="#ABC1BE" transform="translate(350,172)"/>
<path d="M0 0 C1.18239258 0.01353516 1.18239258 0.01353516 2.38867188 0.02734375 C4.32174666 0.05077496 6.2546638 0.08664162 8.1875 0.125 C8.3894397 0.99112915 8.3894397 0.99112915 8.59545898 1.87475586 C12.26166058 17.24114751 16.80032626 31.88129521 27.1875 44.125 C25.7308323 45.27295006 24.27211063 46.41829419 22.8125 47.5625 C22.00039062 48.20058594 21.18828125 48.83867187 20.3515625 49.49609375 C15.1461779 53.4142262 9.23418835 52.34889974 2.9375 52.375 C1.09478516 52.4059375 1.09478516 52.4059375 -0.78515625 52.4375 C-2.56986328 52.44523437 -2.56986328 52.44523437 -4.390625 52.453125 C-6.02112793 52.46714355 -6.02112793 52.46714355 -7.68457031 52.48144531 C-12.82702264 51.89543373 -15.97975709 49.97666889 -19.5625 46.3125 C-24.17558698 39.77729344 -24.20553174 33.49735908 -24.25 25.75 C-24.28287109 24.74710938 -24.31574219 23.74421875 -24.34960938 22.7109375 C-24.39884644 15.87146215 -23.25051643 11.40441257 -18.8125 6.125 C-12.9500427 0.55566556 -7.75457101 -0.16900155 0 0 Z " fill="#ABC1BE" transform="translate(152.8125,171.875)"/>
<path d="M0 0 C4.62 0 9.24 0 14 0 C15.10557592 2.35351368 16.20948982 4.7077841 17.3125 7.0625 C17.7755957 8.04766602 17.7755957 8.04766602 18.24804688 9.05273438 C20.2518979 13.33464761 22.15957624 17.64527425 24 22 C25.62335596 19.56496606 26.75585119 17.45920935 27.91015625 14.8046875 C28.26013672 14.00675781 28.61011719 13.20882813 28.97070312 12.38671875 C29.33099609 11.55785156 29.69128906 10.72898437 30.0625 9.875 C30.78044092 8.22564193 31.50038732 6.57715489 32.22265625 4.9296875 C32.53984619 4.19991699 32.85703613 3.47014648 33.18383789 2.71826172 C34 1 34 1 35 0 C39.62 0 44.24 0 49 0 C49 14.52 49 29.04 49 44 C45.7 44 42.4 44 39 44 C38.67 34.43 38.34 24.86 38 15 C35.03 21.93 32.06 28.86 29 36 C26.03 36 23.06 36 20 36 C15.545 25.605 15.545 25.605 11 15 C10.67 24.57 10.34 34.14 10 44 C6.7 44 3.4 44 0 44 C0 29.48 0 14.96 0 0 Z " fill="#FCFEFE" transform="translate(191,424)"/>
<path d="M0 0 C3.815625 -0.061875 7.63125 -0.12375 11.5625 -0.1875 C13.34636108 -0.22846802 13.34636108 -0.22846802 15.16625977 -0.27026367 C21.23642091 -0.31778661 25.6926518 -0.04721216 31 3 C35.25055408 7.58612414 36.35395934 10.56604193 36.28515625 16.6796875 C35.73713772 21.13890679 33.22383773 23.89089706 30 26.8125 C24.28910143 30.20334603 17.39305299 29.06393053 11 29 C11 33.95 11 38.9 11 44 C7.37 44 3.74 44 0 44 C0 29.48 0 14.96 0 0 Z " fill="#FCFEFE" transform="translate(289,424)"/>
<path d="M0 0 C3.63 0 7.26 0 11 0 C11 11.88 11 23.76 11 36 C17.6 36 24.2 36 31 36 C31 38.64 31 41.28 31 44 C20.77 44 10.54 44 0 44 C0 29.48 0 14.96 0 0 Z " fill="#FCFEFE" transform="translate(251,424)"/>
<path d="M0 0 C8.19057816 -0.48179872 8.19057816 -0.48179872 11.625 1.5625 C13.5994537 5.06266793 13.05489746 7.20236913 12 11 C7.7975546 13.80163026 4.99895065 13.14489712 0 13 C0 8.71 0 4.42 0 0 Z " fill="#0D1B1A" transform="translate(300,432)"/>
<path d="M0 0 C0.66 0 1.32 0 2 0 C1.40078338 3.22078933 0.72171707 5.38272147 -1.80859375 7.546875 C-3.85452499 8.88329981 -5.72760695 10.09554257 -8 11 C-8.99 10.67 -9.98 10.34 -11 10 C-10.45730469 9.69707031 -9.91460937 9.39414063 -9.35546875 9.08203125 C-4.97292835 6.51567876 -2.37801064 4.62390958 0 0 Z " fill="#062D24" transform="translate(145,146)"/>
</svg>
